<svg version="1.1" id="Layer_1" xmlns="http://www.w3.org/2000/svg" xmlns:xlink="http://www.w3.org/1999/xlink" x="0px" y="0px" viewBox="0 0 500 500" style="width: 188px;" xml:space="preserve" data-imageid="bug-fixing-44" imageName="Bug Fixing" class="illustrations_image">
<style type="text/css">
	.st0_bug-fixing-44{fill:#D1D3D4;}
	.st1_bug-fixing-44{fill:#FFFFFF;}
	.st2_bug-fixing-44{fill:#231F20;}
	.st3_bug-fixing-44{fill:#68E1FD;}
</style>
<g id="Floor_bug-fixing-44">
	<path class="st0_bug-fixing-44" d="M485,390.6H29c-0.4,0-0.7-0.4-0.7-0.9c0-0.4,0.3-0.6,0.7-0.7h456c0.4,0,0.8,0.3,0.9,0.7s-0.3,0.8-0.7,0.9&#10;&#9;&#9;C485.1,390.6,485.1,390.6,485,390.6z"/>
</g>
<g id="Monitor_bug-fixing-44">
	<path class="st1_bug-fixing-44" d="M93.9,91.8l325.2-1.4c13.2-0.1,24,10.6,24.1,23.9l0.9,210.7c0.1,13.2-10.6,24-23.9,24.1L95,350.4&#10;&#9;&#9;c-13.2,0.1-24-10.6-24.1-23.9L70,115.9C70,102.6,80.7,91.8,93.9,91.8z"/>
	<path class="st2_bug-fixing-44" d="M94.9,351.2c-13.6,0-24.6-11-24.7-24.6l-0.9-210.7c-0.1-13.6,10.9-24.7,24.6-24.8c0,0,0,0,0,0L419,89.7h0.1&#10;&#9;&#9;c13.6,0,24.6,11,24.7,24.6l0.9,210.7c0.1,13.6-11,24.7-24.6,24.8L94.9,351.2L94.9,351.2z M419,91.1L93.9,92.5&#10;&#9;&#9;C81,92.5,70.7,103,70.7,115.9c0,0,0,0,0,0l0.9,210.7c0.1,12.8,10.5,23.2,23.3,23.2H95l325.1-1.4c12.8,0,23.2-10.5,23.2-23.3&#10;&#9;&#9;l-0.9-210.7c0-12.8-10.4-23.2-23.3-23.2H419z M419,90.4L419,90.4z"/>
	<path class="st1_bug-fixing-44" d="M321.3,394.5l-23.1-45.2l-90.2,0.4l27.5,53.8l-33.8,0.1c-3.1,0-5.6,2.6-5.6,5.7l0,0c0,3.1,2.5,5.6,5.6,5.6&#10;&#9;&#9;c0,0,0,0,0,0l107.4-0.3c7.6,0,13.7-6.2,13.7-13.8C322.8,398.6,322.3,396.4,321.3,394.5z"/>
	<path class="st2_bug-fixing-44" d="M201.7,415.5c-3.5-0.1-6.2-3.1-6.1-6.6c0.1-3.3,2.8-6,6.1-6.1l32.7-0.1l-27-52.7c-0.1-0.2-0.1-0.5,0-0.7&#10;&#9;&#9;c0.1-0.2,0.4-0.3,0.6-0.3l90.2-0.4l0,0c0.3,0,0.5,0.2,0.6,0.4l23.2,45.2l0,0c3.6,7.1,0.8,15.8-6.3,19.4c-2,1-4.2,1.6-6.5,1.6&#10;&#9;&#9;L201.7,415.5L201.7,415.5z M209.2,350.4l27,52.7c0.2,0.3,0,0.8-0.3,0.9c-0.1,0-0.2,0.1-0.3,0.1l-33.8,0.1c-2.7,0.1-4.8,2.4-4.7,5.2&#10;&#9;&#9;c0.1,2.6,2.2,4.6,4.7,4.7l0,0l107.4-0.4c7.2,0,13-5.8,13-13c0-2.1-0.5-4.1-1.4-5.9L297.8,350L209.2,350.4z"/>
	<path class="st2_bug-fixing-44" d="M201.7,404.3c-0.4,0-0.7-0.4-0.6-0.8c0-0.3,0.3-0.6,0.6-0.6l108.3-0.5l0,0c0.4,0,0.7,0.2,0.8,0.6&#10;&#9;&#9;c0,0.4-0.2,0.7-0.6,0.8c-0.1,0-0.1,0-0.2,0L201.7,404.3L201.7,404.3z"/>
	<path class="st0_bug-fixing-44" d="M77.7,128.3c-0.4,0-0.7-0.4-0.7-0.9c0-0.4,0.3-0.6,0.7-0.7l357.5-1.5l0,0c0.4,0,0.8,0.3,0.8,0.8&#10;&#9;&#9;c0,0.4-0.3,0.8-0.8,0.8L77.7,128.3z"/>
	<path class="st0_bug-fixing-44" d="M78.5,312.7c-0.4,0-0.7-0.4-0.7-0.9c0-0.4,0.3-0.6,0.7-0.7l357.5-1.5l0,0c0.4,0,0.8,0.3,0.9,0.7&#10;&#9;&#9;s-0.3,0.8-0.7,0.9c-0.1,0-0.1,0-0.2,0L78.5,312.7L78.5,312.7z"/>
	<path class="st0_bug-fixing-44" d="M237.4,110.7c-0.4,0-0.8-0.3-0.8-0.8l0,0c0-0.4,0.3-0.8,0.8-0.8l24.4-0.1l0,0c0.4,0,0.7,0.4,0.7,0.9&#10;&#9;&#9;c0,0.4-0.3,0.6-0.7,0.7L237.4,110.7L237.4,110.7z"/>
	<path class="st0_bug-fixing-44" d="M374,215.7c-0.2,0-0.4-0.1-0.5-0.2c-0.3-0.3-0.4-0.8-0.1-1.1c0,0,0,0,0,0l38.4-43.6c0.2-0.4,0.7-0.5,1.1-0.3&#10;&#9;&#9;c0.4,0.2,0.5,0.7,0.3,1.1c0,0.1-0.1,0.2-0.2,0.2l-38.4,43.6C374.4,215.6,374.2,215.7,374,215.7z"/>
	<path class="st0_bug-fixing-44" d="M403.1,252.9c-0.4,0-0.8-0.3-0.8-0.8c0-0.2,0.1-0.4,0.2-0.5l16.9-19.8c0.3-0.3,0.8-0.4,1.1-0.1&#10;&#9;&#9;c0.3,0.3,0.4,0.8,0.1,1.1l-16.9,19.8C403.5,252.8,403.3,252.9,403.1,252.9z"/>
	<path class="st0_bug-fixing-44" d="M85.8,235.5c-0.2,0-0.4-0.1-0.6-0.2c-0.3-0.3-0.3-0.8,0-1.1c0,0,0,0,0,0l45.3-44.1c0.3-0.3,0.8-0.3,1.1,0&#10;&#9;&#9;c0.3,0.3,0.3,0.8,0,1.1l-45.4,44.1C86.2,235.4,86,235.5,85.8,235.5z"/>
</g>
<g id="magnifying_Glass_bug-fixing-44">
	
		<rect x="53.8" y="320.7" transform="matrix(0.7071 -0.7071 0.7071 0.7071 -192.2805 198.6288)" class="st2_bug-fixing-44" width="179.6" height="21.4"/>
	<path class="st2_bug-fixing-44" d="M87.7,403.3c-0.2,0-0.4-0.1-0.6-0.2L72,387.9c-0.3-0.3-0.3-0.8,0-1.1c0,0,0,0,0,0l127-127&#10;&#9;&#9;c0.3-0.3,0.8-0.3,1.1,0c0,0,0,0,0,0l15.1,15.1c0.3,0.3,0.3,0.8,0,1.1c0,0,0,0,0,0l-127,127C88.1,403.2,87.9,403.3,87.7,403.3z&#10;&#9;&#9; M73.7,387.4l14,14l125.9-125.9l-14-14L73.7,387.4z"/>
	<path class="st3_bug-fixing-44 targetColor" d="M151.7,318l5.4,5.4c6.3,6.3,6.3,16.6,0,23l-81,81c-6.3,6.3-16.6,6.3-23,0l-5.4-5.4c-6.3-6.3-6.3-16.6,0-23&#10;&#9;&#9;l81-81C135.1,311.6,145.4,311.6,151.7,318z" style="fill: rgb(189, 238, 99);"/>
	<circle class="st1_bug-fixing-44" cx="254.3" cy="220.7" r="110.3"/>
	<path class="st2_bug-fixing-44" d="M254.3,331.8c-61.3,0-111-49.8-110.9-111.1s49.8-111,111.1-110.9s111,49.8,110.9,111.1&#10;&#9;&#9;c0,29.4-11.7,57.6-32.5,78.4C312,320.1,283.8,331.8,254.3,331.8z M254.3,111.3c-60.5,0.1-109.4,49.1-109.4,109.6&#10;&#9;&#9;S194,330.3,254.5,330.2s109.4-49.1,109.4-109.6c0-29-11.6-56.9-32.1-77.4C311.2,122.7,283.4,111.2,254.3,111.3z"/>
	<circle class="st1_bug-fixing-44" cx="254.3" cy="220.7" r="91.9"/>
	<path class="st2_bug-fixing-44" d="M254.3,313.4c-51.2,0-92.6-41.5-92.6-92.7s41.5-92.6,92.7-92.6s92.6,41.5,92.6,92.7c0,24.6-9.8,48.1-27.2,65.5&#10;&#9;&#9;C302.5,303.7,278.9,313.4,254.3,313.4z M254.3,129.6c-50.3,0-91.1,40.8-91,91.2s40.8,91.1,91.2,91s91.1-40.8,91-91.2&#10;&#9;&#9;c0-24.2-9.6-47.3-26.7-64.4C301.7,139.2,278.5,129.6,254.3,129.6z"/>
</g>
<g id="Bug_bug-fixing-44">
	<path class="st2_bug-fixing-44" d="M281.5,192h-0.1c-0.4-0.1-0.7-0.4-0.7-0.9c0,0,0,0,0,0c0.2-1.2,0.2-2.4-0.1-3.6c-0.2-0.2-1.6-1-3-1.8&#10;&#9;&#9;c-7.2-4.3-11.1-6.9-11.5-8.7c-0.1-0.4,0-0.8,0.3-1.1c1.4-1.8,10.9-12.4,12.9-14.6l-1.2-2.3c-0.2-0.4,0-0.8,0.4-1&#10;&#9;&#9;c0.4-0.2,0.8,0,1,0.3l1.4,2.8c0.1,0.3,0.1,0.6-0.1,0.9c-0.1,0.1-11.3,12.7-13.1,14.9c0.4,1.5,7.9,5.9,10.7,7.6&#10;&#9;&#9;c2.6,1.6,3.2,1.9,3.5,2.2c0.7,0.9,0.5,3.6,0.3,4.7C282.1,191.7,281.8,192,281.5,192z"/>
	<path class="st2_bug-fixing-44" d="M255.4,191.2c-0.1,0-0.3,0-0.4-0.1c-2.3-1.4-13.6-8.7-14-12.1c-0.1-0.5,0.1-1,0.5-1.4l14.1-14.1l-1.9-2.2&#10;&#9;&#9;c-0.3-0.3-0.2-0.8,0.1-1.1c0.3-0.3,0.8-0.2,1.1,0.1l2.4,2.8c0.3,0.3,0.3,0.7,0,1l-14.7,14.7c0.2,2.1,7.9,7.7,13.3,11.1&#10;&#9;&#9;c0.4,0.2,0.5,0.7,0.3,1.1C255.9,191.1,255.7,191.2,255.4,191.2L255.4,191.2z"/>
	<path class="st2_bug-fixing-44" d="M227.7,199.2c-0.3,0-0.6-0.2-0.7-0.5l-5.8-14c-3.8-0.6-14.1-2.6-15.2-5.4c-0.2-0.6-0.1-1.3,0.3-1.7&#10;&#9;&#9;c2.5-3,3.9-10,3.9-10.1c0.1-0.4,0.5-0.7,0.9-0.6s0.7,0.5,0.6,0.9c-0.1,0.3-1.5,7.5-4.2,10.8c-0.1,0.1-0.1,0.2-0.1,0.2&#10;&#9;&#9;c0.5,1.4,7.9,3.4,14.4,4.5c0.3,0,0.5,0.2,0.6,0.5l6,14.4c0.2,0.4,0,0.8-0.4,1C227.9,199.1,227.8,199.2,227.7,199.2z"/>
	<path class="st3_bug-fixing-44 targetColor" d="M222.5,236.8c0,0,7.4,19.6,40.3,18.8s70.9-41.6,67.1-46.3s-17-5.7-17-5.7s10.3-5.7,4.9-8.4&#10;&#9;&#9;s-86.3,9.5-98.3,16.3S222.5,236.8,222.5,236.8z" style="fill: rgb(189, 238, 99);"/>
	<path class="st2_bug-fixing-44" d="M282.2,245.4c4-1.7,7.8-3.9,11.4-6.4c9.2-6.4,17.1-16.2,17.4-27.4c0.2-1.8-0.2-3.7-1.1-5.2&#10;&#9;&#9;c-1.1-1.4-2.4-2.5-4-3.3c-2.7-1.7-5.6-3.1-8.6-4.1c-3.6-0.8-7.4-1.1-11.1-0.6c-16.2,1.1-33.6,4.1-47.3,13.4&#10;&#9;&#9;c-8.1,5.5-20.3,19.5-11.4,28.9c8.1,8.6,23.5,10.3,34.6,9.6C269,249.8,275.8,248.2,282.2,245.4z"/>
	<path class="st2_bug-fixing-44" d="M257.8,251.1c-8.2,0-22.7-1.3-30.8-10c-2.5-2.5-3.7-6.1-3.2-9.6c0.9-7.7,8.3-16,14.8-20.4&#10;&#9;&#9;c15.1-10.2,34.4-12.6,47.7-13.5c3.5-0.2,7.5-0.4,11.4,0.7c3.1,1,6.1,2.4,8.8,4.2c1.7,0.8,3.1,2,4.2,3.5c1,1.7,1.4,3.7,1.2,5.7&#10;&#9;&#9;c-0.2,10.1-6.7,20.4-17.8,28c-3.6,2.5-7.5,4.7-11.6,6.4l0,0c-6.5,2.8-13.4,4.5-20.4,4.9C261.1,251.1,259.6,251.1,257.8,251.1z&#10;&#9;&#9; M290.5,199c-1.5,0-2.9,0.1-4.2,0.2c-13.1,0.9-32.1,3.2-46.9,13.2c-5.2,3.5-13.3,11.6-14.1,19.4c-0.4,3.1,0.6,6.2,2.8,8.4&#10;&#9;&#9;c9.5,10.1,28.4,9.7,34,9.4c6.9-0.4,13.6-2,19.9-4.7l0,0c4-1.7,7.8-3.8,11.3-6.3c10.6-7.4,16.9-17.1,17.1-26.8&#10;&#9;&#9;c0.2-1.7-0.2-3.3-1-4.8c-1-1.3-2.3-2.3-3.7-3c-2.6-1.7-5.5-3.1-8.5-4.1C294.9,199.2,292.7,199,290.5,199z"/>
	<path class="st1_bug-fixing-44" d="M260.3,245.2c32.4-0.3,59.3-28,46.5-42.5s-59.9-29.2-86.6,0.8C201,225.3,227.9,245.5,260.3,245.2z"/>
	<path class="st2_bug-fixing-44" d="M259.7,246c-21.1,0-39.5-8.4-45-20.5c-2.3-5.1-3.3-13.1,5.1-22.5c13-14.6,29.8-17.7,41.7-17.7l0,0&#10;&#9;&#9;c20.2,0,38.8,8.7,46,16.9c3.9,4.4,4.5,10.3,1.7,16.7c-5.9,13.2-25.7,26.9-48.8,27.1L259.7,246z M261.4,186.9&#10;&#9;&#9;c-11.5,0-27.9,3-40.5,17.2c-6.2,6.9-7.9,14.1-4.8,20.8c5.2,11.4,23.5,19.6,43.6,19.6h0.6c22.5-0.2,41.8-13.4,47.4-26.2&#10;&#9;&#9;c1.8-4.1,3-10-1.4-15C299.3,195.4,281.1,186.9,261.4,186.9L261.4,186.9z"/>
	<ellipse transform="matrix(0.866 -0.5 0.5 0.866 -83.8311 137.2533)" class="st1_bug-fixing-44" cx="214.2" cy="225.1" rx="22.5" ry="21.8"/>
	<path class="st2_bug-fixing-44" d="M213.7,247.8c-8,0.1-15.5-4.2-19.6-11.1l0,0c-3-5.2-3.8-11.4-2.1-17.2c3.5-12.2,16.1-19.5,28.4-16.4&#10;&#9;&#9;c5.9,1.4,10.9,5.2,13.9,10.4c6.2,10.8,2.3,24.8-8.8,31.2C221.9,246.7,217.8,247.8,213.7,247.8z M214.7,203.9&#10;&#9;&#9;c-9.8,0-18.5,6.5-21.2,16c-1.6,5.4-0.9,11.2,1.9,16l0,0c5.8,10,18.9,13.3,29.3,7.4s14.1-19,8.3-29c-2.8-4.9-7.5-8.4-12.9-9.7&#10;&#9;&#9;C218.3,204.1,216.5,203.9,214.7,203.9L214.7,203.9z"/>
	<path class="st2_bug-fixing-44" d="M295.5,260c-0.5,0-1.1,0-1.6-0.1c-0.7-0.1-2-1.5-8.6-9.9c-5-6.2-11.8-14.8-13.6-15.8c-0.2-0.1-0.6-0.1-0.8,0&#10;&#9;&#9;c-0.8,0.4-2.6,2.1-4.8,9.5l-0.1,0.4c-0.1,0.4-0.6,0.6-1,0.5c-0.4-0.1-0.6-0.6-0.5-1c0,0,0,0,0,0l0.1-0.4c1.8-6.3,3.7-9.7,5.7-10.5&#10;&#9;&#9;c0.7-0.3,1.5-0.3,2.1,0.1c2,1.1,7.1,7.4,14.1,16.2c3.3,4.2,7.1,9,7.9,9.4c2.7,0,5.4-0.1,8.1-0.3c0.4,0,0.8,0.3,0.8,0.7&#10;&#9;&#9;c0,0.4-0.3,0.8-0.7,0.8C302,259.6,298,260,295.5,260z"/>
	<path class="st2_bug-fixing-44" d="M206.7,229.9c-0.4,0-0.7-0.3-0.8-0.7c0-0.4,0.3-0.8,0.7-0.8l12.2-0.8c0.4-0.1,0.8,0.2,0.9,0.6&#10;&#9;&#9;c0.1,0.4-0.2,0.8-0.6,0.9c0,0-0.1,0-0.1,0L206.7,229.9L206.7,229.9z"/>
	<path class="st2_bug-fixing-44" d="M211.9,236.5c-0.4,0-0.8-0.3-0.8-0.8c-0.1-5.8-0.4-12.3-0.7-13c-0.1-0.4,0-0.8,0.4-1c0.4-0.2,0.8,0,1,0.3&#10;&#9;&#9;c0,0,0,0,0,0c0.6,1.1,0.8,9.9,0.9,13.7C212.7,236.1,212.3,236.5,211.9,236.5L211.9,236.5z"/>
	<path class="st2_bug-fixing-44" d="M198,218.5c-0.4,0-0.8-0.3-0.8-0.8c0-0.4,0.3-0.8,0.8-0.8c0,0,0,0,0,0l10.9-0.3l0,0c0.4,0,0.7,0.4,0.7,0.9&#10;&#9;&#9;c0,0.4-0.3,0.6-0.7,0.7L198,218.5z"/>
	<path class="st2_bug-fixing-44" d="M202.9,223.7c-0.4,0-0.8-0.3-0.8-0.8l-0.3-12.2c0-0.4,0.3-0.8,0.7-0.8c0,0,0,0,0,0l0,0c0.4,0,0.8,0.3,0.8,0.8&#10;&#9;&#9;l0.3,12.2C203.7,223.3,203.3,223.7,202.9,223.7C202.9,223.7,202.9,223.7,202.9,223.7L202.9,223.7z"/>
	<path class="st0_bug-fixing-44" d="M263.3,231.7h-0.1c-0.4-0.1-0.7-0.5-0.6-0.9c0.2-1,4.6-25.4-21-34.2c-0.4-0.1-0.6-0.6-0.5-1s0.6-0.6,1-0.5l0,0&#10;&#9;&#9;c14,4.8,19.3,14.4,21.2,21.5c1.3,4.7,1.6,9.6,0.8,14.5C264,231.4,263.7,231.7,263.3,231.7z"/>
	<path class="st0_bug-fixing-44" d="M284.2,224.4c-0.1,0-0.2,0-0.2,0c-0.4-0.1-0.6-0.6-0.5-1c0,0,0,0,0,0c0.1-0.2,5.6-17.3-13.9-31.8&#10;&#9;&#9;c-0.3-0.3-0.4-0.7-0.2-1.1c0.3-0.3,0.7-0.4,1.1-0.2l0,0c10.6,7.9,14,16.6,14.9,22.4c0.7,3.7,0.5,7.5-0.5,11.1&#10;&#9;&#9;C284.9,224.2,284.6,224.4,284.2,224.4z"/>
	<path class="st2_bug-fixing-44" d="M264.5,275.8c-0.1,0-0.2,0-0.3-0.1l-4.2-1.9c-2.4-0.1-27.1-1.7-34.9-4.8c-1.1-0.4-1.9-1.3-2.1-2.5&#10;&#9;&#9;c-1.2-6.3,14.3-20.9,16.1-22.5c0.3-0.3,0.8-0.3,1.1,0s0.3,0.8,0,1.1c-4.6,4.3-16.5,16.5-15.6,21.1c0.1,0.6,0.6,1.1,1.2,1.3&#10;&#9;&#9;c7.7,3.1,34.3,4.7,34.5,4.7c0.1,0,0.2,0,0.3,0.1l4.4,2c0.4,0.2,0.5,0.7,0.4,1C265,275.6,264.8,275.8,264.5,275.8L264.5,275.8z"/>
	<path class="st2_bug-fixing-44" d="M307.8,245.8c-4.2,0-7.3-12.5-8.1-16.4c-0.1-0.4,0.2-0.8,0.6-0.9c0.4-0.1,0.8,0.2,0.9,0.6l0,0&#10;&#9;&#9;c1.6,7.4,4.6,15.2,6.6,15.2h0.1c3-0.3,14.3-5.5,19.9-8.2c0.2-0.1,0.5-0.1,0.7,0l4.4,2.4c0.4,0.2,0.5,0.7,0.3,1c0,0,0,0,0,0&#10;&#9;&#9;c-0.2,0.4-0.7,0.5-1,0.3c0,0,0,0,0,0l-4-2.2c-2.5,1.2-16.3,7.8-20,8.2L307.8,245.8z"/>
	<path class="st0_bug-fixing-44" d="M221.9,280.1c-9.1,0-20.2-5.2-23.8-14.2c-1.6-4.1-2.2-10.5,0.4-14.8c1.4-2.4,3.4-3.4,5.5-4.4&#10;&#9;&#9;c0.8-0.4,1.6-0.8,2.4-1.2c0.4-0.2,0.8-0.1,1.1,0.3s0.1,0.8-0.3,1.1l0,0c-0.9,0.5-1.7,0.9-2.5,1.3c-2,1-3.7,1.8-4.9,3.8&#10;&#9;&#9;c-2.2,3.7-1.8,9.6-0.2,13.5c3.5,8.8,14.6,13.6,23.3,13.2c0.4,0,0.8,0.3,0.8,0.7c0,0,0,0,0,0.1c0,0.4-0.3,0.8-0.7,0.8c0,0,0,0,0,0&#10;&#9;&#9;C222.6,280.1,222.3,280.1,221.9,280.1z"/>
	<path class="st0_bug-fixing-44" d="M186.8,235c-0.4,0-0.9,0-1.3-0.1c-5-0.7-9.3-5.1-11.2-8.8c-2.4-5.1-2.9-10.8-1.5-16.2c1.5-5.4,4.4-10.2,8.4-14&#10;&#9;&#9;c0.3-0.3,0.8-0.3,1.1,0s0.3,0.8,0,1.1c-3.8,3.6-6.6,8.2-8,13.2c-1.4,5.1-0.9,10.4,1.4,15.2c2.1,4.2,6.2,7.4,10,8&#10;&#9;&#9;c2.6,0.4,5.2-0.6,6.8-2.6c0.2-0.4,0.7-0.5,1.1-0.3c0.4,0.2,0.5,0.7,0.3,1.1c0,0.1-0.1,0.1-0.2,0.2C192,233.8,189.5,235,186.8,235z"/>
</g>
<g id="plant_bug-fixing-44">
	<path class="st1_bug-fixing-44" d="M395.6,343.8c-5.5-4.9-11.6-8.9-18.3-11.9c-0.5,19.6,7.4,37.6,14.7,49.9h23.9"/>
	<path class="st2_bug-fixing-44" d="M415.9,382.5H392c-0.3,0-0.5-0.1-0.7-0.4c-7.1-11.9-15.4-30.3-14.8-50.3c0-0.3,0.1-0.5,0.4-0.6&#10;&#9;&#9;c0.2-0.1,0.5-0.2,0.7-0.1c6.8,3,13,7.1,18.5,12.1c0.3,0.3,0.3,0.8,0.1,1.1c-0.3,0.3-0.8,0.3-1.1,0.1c-5.1-4.6-10.9-8.4-17.1-11.4&#10;&#9;&#9;c-0.2,19,7.6,36.4,14.4,47.9h23.4c0.4,0,0.7,0.4,0.7,0.9C416.5,382.2,416.2,382.4,415.9,382.5L415.9,382.5z"/>
	<path class="st1_bug-fixing-44" d="M429.8,349c-5.9-30.6-24.9-51.1-24.9-51.1c-5,15.1-10.6,31.9-9.3,45.9c1.2,12.9,4,25.7,8.3,38h25.7"/>
	<path class="st2_bug-fixing-44" d="M429.5,382.5h-25.7c-0.3,0-0.6-0.2-0.7-0.5c-4.3-12.3-7-25.1-8.3-38.1c-1.3-13.9,4.2-30.7,9.1-45.5l0.2-0.7&#10;&#9;&#9;c0.1-0.3,0.3-0.5,0.6-0.5c0.3-0.1,0.5,0,0.7,0.2c0.2,0.2,19.2,21.1,25.1,51.5c0.1,0.4-0.2,0.8-0.6,0.9s-0.8-0.2-0.9-0.6&#10;&#9;&#9;c-5-26.3-20-45.3-23.8-49.8c-4.8,14.5-10.1,30.9-8.8,44.3c1.2,12.7,3.9,25.2,8,37.2h25.1c0.4,0,0.7,0.4,0.7,0.9&#10;&#9;&#9;C430.1,382.2,429.8,382.5,429.5,382.5L429.5,382.5z"/>
	<path class="st1_bug-fixing-44" d="M442.5,381.7h-22.7c-0.2-6.7,1.3-16.9,8.6-30.1c0.5-0.9,1-1.7,1.5-2.6c13.2-22.3,25.2-22,25.2-22&#10;&#9;&#9;C460.1,350.5,449.4,371.4,442.5,381.7z"/>
	<path class="st2_bug-fixing-44" d="M442.5,382.5h-22.7c-0.4,0-0.8-0.3-0.8-0.8c-0.2-6.4,1.1-16.8,8.7-30.5c0.5-0.9,1-1.7,1.5-2.6&#10;&#9;&#9;c13.2-22.4,25.4-22.4,25.9-22.4c0.4,0,0.7,0.3,0.7,0.6c5.2,23.8-5.7,44.9-12.6,55.3C443,382.4,442.7,382.5,442.5,382.5z M420.5,381&#10;&#9;&#9;H442c6.8-10.3,17-30.5,12.3-53.1c-2.5,0.3-12.8,2.9-23.9,21.6c-0.5,0.8-1,1.7-1.5,2.5C421.9,364.8,420.4,374.7,420.5,381L420.5,381&#10;&#9;&#9;z"/>
	<polygon class="st2_bug-fixing-44" points="438.3,417.8 393.8,417.8 386.6,381.7 445.5,381.7 &#9;"/>
</g>
</svg>